<?xml version="1.0" encoding="iso-8859-1"?>
<!-- Generator: Adobe Illustrator 17.1.0, SVG Export Plug-In . SVG Version: 6.00 Build 0)  -->
<!DOCTYPE svg PUBLIC "-//W3C//DTD SVG 1.1//EN" "http://www.w3.org/Graphics/SVG/1.1/DTD/svg11.dtd">
<svg version="1.1" id="Capa_1" xmlns="http://www.w3.org/2000/svg" xmlns:xlink="http://www.w3.org/1999/xlink" x="0px" y="0px"
	 viewBox="0 0 466.002 466.002" style="enable-background:new 0 0 466.002 466.002;" xml:space="preserve">
<g>
	<path d="M208.959,241.623l-40.446,40.446c-2.827,2.827-3.133,7.308-0.716,10.493c11.238,14.81,17.848,32.026,19.116,49.787
		c1.669,23.387-6.052,44.907-21.742,60.597c-15.689,15.689-37.206,23.412-60.597,21.742c-22.222-1.587-43.592-11.593-60.175-28.175
		c-16.582-16.582-26.587-37.952-28.174-60.174c-1.668-23.387,6.053-44.907,21.742-60.597c15.689-15.69,37.206-23.42,60.597-21.742
		c17.761,1.268,34.978,7.878,49.787,19.116c3.187,2.418,7.666,2.111,10.493-0.716l40.447-40.447c3.125-3.125,3.125-8.19,0-11.314
		c-3.124-3.123-8.189-3.123-11.313,0l-35.664,35.664c-15.95-10.648-34.004-16.934-52.611-18.262
		c-28.087-2.006-54.03,7.367-73.049,26.387C7.633,283.45-1.738,309.392,0.266,337.478c1.86,26.062,13.516,51.045,32.82,70.35
		c19.304,19.303,44.288,30.959,70.349,32.819c2.492,0.178,4.965,0.267,7.42,0.267c25.213-0.001,48.297-9.321,65.629-26.653
		c19.021-19.021,28.392-44.964,26.387-73.05c-1.328-18.608-7.612-36.659-18.262-52.61l35.663-35.663
		c3.125-3.125,3.125-8.189,0-11.314C217.149,238.5,212.083,238.5,208.959,241.623z"/>
	<path d="M47.636,285.411c-12.842,12.843-19.154,30.583-17.771,49.954c1.352,18.941,9.948,37.225,24.204,51.48
		s32.538,22.852,51.479,24.203c1.753,0.125,3.491,0.188,5.215,0.188c17.325,0,33.059-6.278,44.739-17.958
		c12.843-12.843,19.154-30.583,17.771-49.954c-1.352-18.941-9.948-37.225-24.204-51.48C119.33,262.106,73.827,259.22,47.636,285.411
		z M144.188,381.964c-19.954,19.953-55.306,17.069-78.807-6.433c-23.5-23.5-26.386-58.853-6.433-78.806
		c8.911-8.911,20.889-13.266,33.515-13.266c15.646,0,32.287,6.692,45.292,19.698c11.534,11.534,18.479,26.203,19.558,41.305
		C158.361,359.135,153.7,372.453,144.188,381.964z"/>
	<path d="M373.694,237.776c-2.442,0-4.931,0.09-7.396,0.266c-18.607,1.328-36.659,7.612-52.61,18.262l-48.391-48.391l63.883-63.884
		l62.234,62.234c3.125,3.123,8.189,3.124,11.314,0l60.929-60.929c3.124-3.125,3.124-8.189,0-11.314l-62.234-62.233l8.838-8.837
		c7.408-7.408,7.408-19.463-0.001-26.871l-5.426-5.425c-3.588-3.589-8.359-5.565-13.436-5.565c-5.075,0-9.847,1.977-13.436,5.564
		L233.001,175.616L88.037,30.652c-3.588-3.588-8.36-5.564-13.435-5.564s-9.846,1.977-13.435,5.564l-5.426,5.426
		c-3.589,3.589-5.565,8.36-5.565,13.436s1.976,9.847,5.565,13.436l8.837,8.837L2.344,134.019c-1.5,1.501-2.343,3.535-2.343,5.657
		s0.843,4.156,2.343,5.657l30.458,30.457c0.002,0.002,0.004,0.005,0.007,0.008s0.005,0.004,0.008,0.007l30.457,30.457
		c3.124,3.123,8.189,3.123,11.313,0l62.234-62.234l144.571,144.571c-10.648,15.95-16.933,34.003-18.261,52.611
		c-2.005,28.085,7.366,54.028,26.386,73.05c17.188,17.187,40.504,26.652,65.655,26.652c2.441,0,4.93-0.09,7.395-0.266
		c26.063-1.86,51.046-13.517,70.35-32.819c19.305-19.305,30.96-44.289,32.819-70.35c2.005-28.086-7.366-54.028-26.387-73.049
		C422.162,247.242,398.846,237.776,373.694,237.776z M389.278,41.967c0.765-0.765,1.657-0.879,2.121-0.879
		c0.465,0,1.357,0.114,2.122,0.879l5.426,5.426c1.17,1.169,1.17,3.073,0,4.242l-14.494,14.494L354.441,96.14
		c-3.124,3.125-3.124,8.189,0,11.314c1.563,1.562,3.609,2.343,5.657,2.343s4.095-0.781,5.657-2.343L390.11,83.1l56.577,56.576
		l-19.151,19.151l-20.684-20.685l3.938-3.938c3.124-3.125,3.124-8.189,0-11.314c-3.125-3.123-8.189-3.123-11.314,0l-3.938,3.938
		l-5.646-5.646c-3.123-3.121-8.188-3.123-11.314,0c-3.124,3.124-3.124,8.189,0,11.314l5.646,5.646l-3.938,3.938
		c-3.124,3.125-3.124,8.189,0,11.314c1.563,1.562,3.609,2.343,5.657,2.343s4.095-0.781,5.657-2.343l3.937-3.937l20.684,20.685
		l-19.15,19.15l-56.577-56.577l4.375-4.375c3.125-3.124,3.125-8.189,0.001-11.313c-3.123-3.123-8.188-3.124-11.313-0.001
		l-10.024,10.023c-0.003,0.003-0.007,0.006-0.01,0.009l-69.541,69.541l-9.668-9.668L389.278,41.967z M449.776,336.34
		c-1.586,22.221-11.592,43.592-28.175,60.174c-16.581,16.582-37.952,26.588-60.174,28.175c-2.088,0.148-4.192,0.225-6.256,0.225
		c-20.878,0-40.176-7.802-54.341-21.966c-15.689-15.69-23.41-37.211-21.741-60.598c1.268-17.762,7.878-34.979,19.115-49.787
		c2.417-3.186,2.111-7.666-0.716-10.493L142.478,127.057l-10.032-10.032c-3.124-3.123-8.189-3.123-11.313,0
		c-3.125,3.125-3.125,8.189,0,11.314l4.375,4.375L68.93,189.292l-19.151-19.151l20.685-20.685l3.938,3.938
		c1.562,1.562,3.609,2.343,5.657,2.343c2.047,0,4.095-0.781,5.657-2.343c3.125-3.124,3.125-8.189,0-11.314l-3.938-3.938l5.646-5.646
		c3.125-3.125,3.125-8.189,0-11.314c-3.124-3.123-8.189-3.123-11.313,0l-5.646,5.646l-3.938-3.938
		c-3.123-3.122-8.188-3.123-11.313,0c-3.125,3.124-3.125,8.189,0,11.314l3.937,3.938l-20.685,20.685l-19.151-19.151L75.892,83.1
		l24.355,24.355c1.562,1.562,3.609,2.343,5.657,2.343s4.095-0.781,5.657-2.343c3.125-3.125,3.125-8.189,0-11.314L81.548,66.129
		L67.055,51.635c-0.765-0.765-0.878-1.657-0.878-2.121s0.114-1.356,0.878-2.121l5.426-5.426c0.765-0.765,1.658-0.879,2.122-0.879
		c0.464,0,1.357,0.114,2.122,0.879l230.434,230.435c2.829,2.827,7.309,3.132,10.493,0.716
		c14.811-11.238,32.027-17.849,49.787-19.116c2.088-0.148,4.192-0.225,6.257-0.225c20.877,0,40.176,7.801,54.34,21.967
		C443.724,291.432,451.445,312.953,449.776,336.34z"/>
	<path d="M373.534,267.457c-20.474,0-41.104,8.889-56.603,24.387c-14.256,14.256-22.852,32.539-24.203,51.48
		c-1.383,19.371,4.929,37.111,17.771,49.954c11.579,11.578,27.501,17.954,44.832,17.954c20.474,0,41.104-8.889,56.603-24.387
		c14.256-14.256,22.852-32.539,24.204-51.48c1.383-19.371-4.929-37.111-17.771-49.954
		C406.788,273.834,390.866,267.457,373.534,267.457z M420.178,334.226c-1.077,15.102-8.023,29.771-19.559,41.305
		c-12.52,12.521-29.026,19.701-45.288,19.701c-13.058,0-24.962-4.712-33.518-13.269c-9.512-9.511-14.173-22.829-13.126-37.501
		c1.078-15.102,8.024-29.771,19.559-41.305c12.52-12.521,29.026-19.701,45.288-19.701c13.059,0,24.962,4.712,33.518,13.269
		C416.563,306.236,421.226,319.554,420.178,334.226z"/>
</g>
<g>
</g>
<g>
</g>
<g>
</g>
<g>
</g>
<g>
</g>
<g>
</g>
<g>
</g>
<g>
</g>
<g>
</g>
<g>
</g>
<g>
</g>
<g>
</g>
<g>
</g>
<g>
</g>
<g>
</g>
</svg>
